<?xml version="1.0" encoding="utf-8"?>
<!-- Generator: Adobe Illustrator 24.1.3, SVG Export Plug-In . SVG Version: 6.00 Build 0)  -->
<svg version="1.1" id="Layer_1" xmlns="http://www.w3.org/2000/svg" xmlns:xlink="http://www.w3.org/1999/xlink" x="0px" y="0px"
	 viewBox="0 0 188 32" style="enable-background:new 0 0 188 32;" xml:space="preserve">
<style type="text/css">
	.st0{fill-rule:evenodd;clip-rule:evenodd;fill:#FF872C;}
	.st1{fill:#FF872C;}
	.st2{fill:#3D3D3D;}
</style>
<path class="st0" d="M26,10.7c0.1,0.2,0.2,0.3,0.3,0.5c4.7,1.2,8.1,5.1,8.1,9.7c0,5.6-5,10.1-11.1,10.1c-3.2,0-6.1-1.2-8.1-3.2H7.5
	c-1.7,0-3-1.2-3-2.7c0-0.9,0.4-1.6,1.1-2.1c-0.7-0.5-1.1-1.3-1.1-2.1c0-0.9,0.4-1.6,1.1-2.1c-0.7-0.5-1.1-1.3-1.1-2.1
	c0-0.9,0.4-1.6,1.1-2.1c-0.7-0.5-1.1-1.3-1.1-2.1c0-1.5,1.3-2.7,3-2.7h1.7C8.9,9.1,8.7,8.6,8.7,8c0-0.6,0.2-1.1,0.5-1.5H4
	c-1.7,0-3-1.2-3-2.7S2.3,1,4,1h16c1.7,0,3,1.2,3,2.7c0,0.6-0.2,1.1-0.5,1.5h5.2c1.7,0,3,1.2,3,2.7c0,1.5-1.3,2.7-3,2.7H26z M29.4,8
	c0-0.8-0.8-1.5-1.7-1.5h-16C10.8,6.5,10,7.1,10,8s0.8,1.5,1.7,1.5h11.8h4.2C28.6,9.5,29.4,8.8,29.4,8z M2.3,3.7
	c0,0.8,0.8,1.5,1.7,1.5h16c0.9,0,1.7-0.7,1.7-1.5S20.9,2.2,20,2.2H4C3.1,2.2,2.3,2.9,2.3,3.7z M23.5,10.7h-16
	c-0.9,0-1.7,0.7-1.7,1.5s0.8,1.5,1.7,1.5h7.9c2-1.8,4.8-3,7.8-3c0.3,0,0.6,0,0.9,0C24,10.8,23.7,10.7,23.5,10.7z M14.3,15H7.5
	c-0.9,0-1.7,0.7-1.7,1.5c0,0.9,0.8,1.5,1.7,1.5h5.1C13,17,13.6,15.9,14.3,15z M12.4,19.3H7.5c-0.9,0-1.7,0.7-1.7,1.5
	s0.8,1.5,1.7,1.5h4.8c-0.1-0.5-0.1-0.9-0.1-1.4C12.2,20.4,12.3,19.8,12.4,19.3z M5.8,25.1c0,0.9,0.8,1.5,1.7,1.5h6.6
	c-0.7-0.9-1.2-2-1.6-3.1H7.5C6.6,23.5,5.8,24.2,5.8,25.1z M13.5,20.9c0,4.9,4.4,8.9,9.8,8.9c5.4,0,9.8-4,9.8-8.9
	c0-4.9-4.4-8.9-9.8-8.9C17.9,12,13.5,16,13.5,20.9z M21.6,18.9c0,0.7,0.7,1.3,1.7,1.3c1.7,0,3.2,1.2,3.2,2.7c0,1.3-1,2.3-2.4,2.6
	v0.3c0,0.4-0.3,0.7-0.8,0.7s-0.8-0.3-0.8-0.7v-0.3c-1.4-0.3-2.4-1.3-2.4-2.6c0-0.4,0.3-0.7,0.8-0.7s0.8,0.3,0.8,0.7
	c0,0.7,0.7,1.3,1.7,1.3c0.9,0,1.7-0.6,1.7-1.3c0-0.7-0.7-1.3-1.7-1.3c-1.7,0-3.2-1.2-3.2-2.7c0-1.3,1-2.3,2.4-2.6v-0.4
	c0-0.4,0.3-0.7,0.8-0.7s0.8,0.3,0.8,0.7v0.4c1.4,0.3,2.4,1.3,2.4,2.6c0,0.4-0.3,0.7-0.8,0.7s-0.8-0.3-0.8-0.7c0-0.7-0.7-1.3-1.7-1.3
	C22.4,17.6,21.6,18.2,21.6,18.9z"/>
<path class="st1" d="M26.2,11.2L26,11.3l0,0.1l0.1,0L26.2,11.2z M26,10.7v-0.2h-0.5l0.3,0.4L26,10.7z M15.2,27.8l0.2-0.2l-0.1-0.1
	h-0.1V27.8z M5.7,22.9l0.1,0.2l0.3-0.2l-0.3-0.2L5.7,22.9z M5.7,18.7l0.1,0.2l0.3-0.2l-0.3-0.2L5.7,18.7z M5.7,14.4l0.1,0.2l0.3-0.2
	l-0.3-0.2L5.7,14.4z M9.2,9.5v0.2h0.5L9.4,9.4L9.2,9.5z M9.2,6.5l0.2,0.2l0.3-0.4H9.2V6.5z M22.4,5.3l-0.2-0.2l-0.3,0.4h0.5V5.3z
	 M15.4,13.8v0.2h0.1l0.1-0.1L15.4,13.8z M24.2,10.9l0,0.2l0.1-0.5L24.2,10.9z M14.3,15l0.2,0.2l0.3-0.4h-0.5V15z M12.7,18.1v0.2h0.2
	l0.1-0.2L12.7,18.1z M12.4,19.3l0.2,0l0.1-0.3h-0.3V19.3z M12.3,22.3v0.2h0.3l0-0.3L12.3,22.3z M14.2,26.6v0.2h0.5l-0.3-0.4
	L14.2,26.6z M12.6,23.5l0.2-0.1l-0.1-0.2h-0.2V23.5z M24,25.5L24,25.2l-0.2,0v0.2H24z M22.5,25.5h0.2v-0.2l-0.2,0L22.5,25.5z
	 M22.5,16.3l0.1,0.2l0.2,0v-0.2H22.5z M24,16.3h-0.2v0.2l0.2,0L24,16.3z M26.5,11.1c-0.1-0.2-0.2-0.4-0.3-0.5l-0.4,0.3
	c0.1,0.1,0.2,0.3,0.3,0.4L26.5,11.1z M34.6,20.9c0-4.8-3.5-8.8-8.3-10l-0.1,0.5c4.6,1.2,7.9,5,7.9,9.5H34.6z M23.3,31.2
	c6.2,0,11.3-4.6,11.3-10.3h-0.5c0,5.4-4.8,9.8-10.8,9.8V31.2z M15,28c2.1,2,5,3.3,8.3,3.3v-0.5c-3.1,0-5.9-1.2-7.9-3.1L15,28z
	 M7.5,28h7.7v-0.5H7.5V28z M4.3,25.1c0,1.7,1.5,3,3.2,3v-0.5c-1.5,0-2.7-1.1-2.7-2.5H4.3z M5.5,22.7c-0.7,0.5-1.2,1.4-1.2,2.3h0.5
	c0-0.8,0.4-1.5,1-1.9L5.5,22.7z M4.3,20.8c0,1,0.5,1.8,1.2,2.3l0.3-0.4c-0.6-0.5-1-1.2-1-1.9H4.3z M5.5,18.5
	c-0.7,0.5-1.2,1.4-1.2,2.3h0.5c0-0.8,0.4-1.5,1-1.9L5.5,18.5z M4.3,16.5c0,1,0.5,1.8,1.2,2.3l0.3-0.4c-0.6-0.5-1-1.2-1-1.9H4.3z
	 M5.5,14.2c-0.7,0.5-1.2,1.4-1.2,2.3h0.5c0-0.8,0.4-1.5,1-1.9L5.5,14.2z M4.3,12.3c0,1,0.5,1.8,1.2,2.3l0.3-0.4
	c-0.6-0.5-1-1.2-1-1.9H4.3z M7.5,9.3c-1.8,0-3.2,1.3-3.2,3h0.5c0-1.3,1.2-2.5,2.7-2.5V9.3z M9.2,9.3H7.5v0.5h1.7V9.3z M8.4,8
	c0,0.6,0.2,1.2,0.6,1.7l0.4-0.3C9.1,9,8.9,8.5,8.9,8H8.4z M9,6.3C8.7,6.8,8.4,7.4,8.4,8h0.5c0-0.5,0.2-1,0.5-1.4L9,6.3z M4,6.7h5.2
	V6.2H4V6.7z M0.8,3.7c0,1.7,1.5,3,3.2,3V6.2c-1.5,0-2.7-1.1-2.7-2.5H0.8z M4,0.8c-1.8,0-3.2,1.3-3.2,3h0.5c0-1.3,1.2-2.5,2.7-2.5
	V0.8z M20,0.8H4v0.5h16V0.8z M23.2,3.7c0-1.7-1.5-3-3.2-3v0.5c1.5,0,2.7,1.1,2.7,2.5H23.2z M22.6,5.4c0.4-0.5,0.6-1.1,0.6-1.7h-0.5
	c0,0.5-0.2,1-0.5,1.4L22.6,5.4z M27.7,5h-5.2v0.5h5.2V5z M30.9,8c0-1.7-1.5-3-3.2-3v0.5c1.5,0,2.7,1.1,2.7,2.5H30.9z M27.7,11
	c1.8,0,3.2-1.3,3.2-3h-0.5c0,1.3-1.2,2.5-2.7,2.5V11z M26,11h1.7v-0.5H26V11z M27.7,6.7c0.8,0,1.4,0.6,1.4,1.3h0.5
	c0-1-0.9-1.8-1.9-1.8V6.7z M11.7,6.7h16V6.2h-16V6.7z M10.2,8c0-0.7,0.6-1.3,1.4-1.3V6.2c-1,0-1.9,0.8-1.9,1.8H10.2z M11.7,9.3
	c-0.8,0-1.4-0.6-1.4-1.3H9.7c0,1,0.9,1.8,1.9,1.8V9.3z M23.5,9.3H11.7v0.5h11.8V9.3z M27.7,9.3h-4.2v0.5h4.2V9.3z M29.1,8
	c0,0.7-0.6,1.3-1.4,1.3v0.5c1,0,1.9-0.8,1.9-1.8H29.1z M4,5C3.2,5,2.6,4.4,2.6,3.7H2.1c0,1,0.9,1.8,1.9,1.8V5z M20,5H4v0.5h16V5z
	 M21.4,3.7C21.4,4.4,20.8,5,20,5v0.5c1,0,1.9-0.8,1.9-1.8H21.4z M20,2.4c0.8,0,1.4,0.6,1.4,1.3h0.5c0-1-0.9-1.8-1.9-1.8V2.4z M4,2.4
	h16V1.9H4V2.4z M2.6,3.7C2.6,3,3.2,2.4,4,2.4V1.9c-1,0-1.9,0.8-1.9,1.8H2.6z M7.5,11h16v-0.5h-16V11z M6.1,12.3
	c0-0.7,0.6-1.3,1.4-1.3v-0.5c-1,0-1.9,0.8-1.9,1.8H6.1z M7.5,13.6c-0.8,0-1.4-0.6-1.4-1.3H5.6c0,1,0.9,1.8,1.9,1.8V13.6z M15.4,13.6
	H7.5v0.5h7.9V13.6z M23.3,10.6c-3.1,0-6,1.2-8,3l0.3,0.4c2-1.8,4.7-2.9,7.7-2.9V10.6z M24.2,10.6c-0.3,0-0.6,0-1,0v0.5
	c0.3,0,0.6,0,0.9,0L24.2,10.6z M23.5,11c0.2,0,0.4,0,0.6,0.1l0.2-0.5c-0.3-0.1-0.5-0.2-0.8-0.2V11z M7.5,15.2h6.8v-0.5H7.5V15.2z
	 M6.1,16.5c0-0.7,0.6-1.3,1.4-1.3v-0.5c-1,0-1.9,0.8-1.9,1.8H6.1z M7.5,17.8c-0.8,0-1.4-0.6-1.4-1.3H5.6c0,1,0.9,1.8,1.9,1.8V17.8z
	 M12.7,17.8H7.5v0.5h5.1V17.8z M14.1,14.8c-0.8,0.9-1.3,2-1.7,3.2l0.5,0.2c0.4-1.1,0.9-2.1,1.6-3L14.1,14.8z M7.5,19.5h4.8V19H7.5
	V19.5z M6.1,20.8c0-0.7,0.6-1.3,1.4-1.3V19c-1,0-1.9,0.8-1.9,1.8H6.1z M7.5,22.1c-0.8,0-1.4-0.6-1.4-1.3H5.6c0,1,0.9,1.8,1.9,1.8
	V22.1z M12.3,22.1H7.5v0.5h4.8V22.1z M12,20.9c0,0.5,0,1,0.1,1.5l0.5-0.1c-0.1-0.5-0.1-0.9-0.1-1.4H12z M12.1,19.2
	C12,19.8,12,20.3,12,20.9h0.5c0-0.5,0.1-1.1,0.1-1.6L12.1,19.2z M7.5,26.4c-0.8,0-1.4-0.6-1.4-1.3H5.6c0,1,0.9,1.8,1.9,1.8V26.4z
	 M14.2,26.4H7.5v0.5h6.6V26.4z M12.3,23.6c0.3,1.1,0.9,2.2,1.6,3.2l0.4-0.3c-0.7-0.9-1.2-1.9-1.5-3L12.3,23.6z M7.5,23.8h5.1v-0.5
	H7.5V23.8z M6.1,25.1c0-0.7,0.6-1.3,1.4-1.3v-0.5c-1,0-1.9,0.8-1.9,1.8H6.1z M23.3,29.6c-5.3,0-9.5-3.9-9.5-8.6h-0.5
	c0,5.1,4.5,9.1,10,9.1V29.6z M32.8,20.9c0,4.7-4.3,8.6-9.5,8.6v0.5c5.5,0,10-4.1,10-9.1H32.8z M23.3,12.3c5.3,0,9.5,3.9,9.5,8.6h0.5
	c0-5.1-4.5-9.1-10-9.1V12.3z M13.8,20.9c0-4.7,4.3-8.6,9.5-8.6v-0.5c-5.5,0-10,4.1-10,9.1H13.8z M23.3,20c-0.8,0-1.4-0.5-1.4-1.1
	h-0.5c0,0.9,0.9,1.6,1.9,1.6V20z M26.7,22.9c0-1.7-1.6-2.9-3.4-2.9v0.5c1.6,0,2.9,1.1,2.9,2.4H26.7z M24.1,25.7
	c1.5-0.3,2.6-1.4,2.6-2.8h-0.5c0,1.1-0.9,2.1-2.2,2.4L24.1,25.7z M24.3,25.8v-0.3h-0.5v0.3H24.3z M23.3,26.7c0.5,0,1-0.4,1-0.9h-0.5
	c0,0.2-0.2,0.4-0.5,0.4V26.7z M22.3,25.8c0,0.5,0.5,0.9,1,0.9v-0.5c-0.3,0-0.5-0.2-0.5-0.4H22.3z M22.3,25.5v0.3h0.5v-0.3H22.3z
	 M19.9,22.9c0,1.4,1.1,2.5,2.6,2.8l0.1-0.5c-1.3-0.3-2.2-1.2-2.2-2.4H19.9z M20.9,21.9c-0.5,0-1,0.4-1,0.9h0.5
	c0-0.2,0.2-0.4,0.5-0.4V21.9z M21.9,22.9c0-0.5-0.5-0.9-1-0.9v0.5c0.3,0,0.5,0.2,0.5,0.4H21.9z M23.3,23.9c-0.8,0-1.4-0.5-1.4-1.1
	h-0.5c0,0.9,0.9,1.6,1.9,1.6V23.9z M24.7,22.9c0,0.5-0.6,1.1-1.4,1.1v0.5c1,0,1.9-0.6,1.9-1.6H24.7z M23.3,21.8
	c0.8,0,1.4,0.5,1.4,1.1h0.5c0-0.9-0.9-1.6-1.9-1.6V21.8z M19.9,18.9c0,1.7,1.6,2.9,3.4,2.9v-0.5c-1.6,0-2.9-1.1-2.9-2.4H19.9z
	 M22.5,16c-1.5,0.3-2.6,1.4-2.6,2.8h0.5c0-1.1,0.9-2.1,2.2-2.4L22.5,16z M22.3,15.9v0.4h0.5v-0.4H22.3z M23.3,15c-0.5,0-1,0.4-1,0.9
	h0.5c0-0.2,0.2-0.4,0.5-0.4V15z M24.3,15.9c0-0.5-0.5-0.9-1-0.9v0.5c0.3,0,0.5,0.2,0.5,0.4H24.3z M24.3,16.3v-0.4h-0.5v0.4H24.3z
	 M26.7,18.9c0-1.4-1.1-2.5-2.6-2.8L24,16.5c1.3,0.3,2.2,1.2,2.2,2.4H26.7z M25.7,19.8c0.5,0,1-0.4,1-0.9h-0.5c0,0.2-0.2,0.4-0.5,0.4
	V19.8z M24.7,18.9c0,0.5,0.5,0.9,1,0.9v-0.5c-0.3,0-0.5-0.2-0.5-0.4H24.7z M23.3,17.8c0.8,0,1.4,0.5,1.4,1.1h0.5
	c0-0.9-0.9-1.6-1.9-1.6V17.8z M21.9,18.9c0-0.5,0.6-1.1,1.4-1.1v-0.5c-1,0-1.9,0.6-1.9,1.6H21.9z"/>
<path class="st2" d="M53,15.9c0,4.1,2.7,6.8,6.2,6.8c2.4,0,4.1-1.3,4.9-2.7v2.8c0,2.8-1.8,4.3-4.1,4.3c-2.2,0-3.7-1.1-4.2-2.7h-2.2
	c0.4,2.8,2.9,4.6,6.4,4.6c3.9,0,6.3-2.6,6.3-6.2V9.4h-2.2v2.4c-0.8-1.4-2.5-2.6-4.9-2.6C55.7,9.2,53,11.8,53,15.9z M64.2,15.9
	c0,3.1-2.1,4.9-4.5,4.9c-2.4,0-4.4-1.8-4.4-4.9s2-4.8,4.4-4.8C62.1,11.1,64.2,12.9,64.2,15.9z"/>
<path class="st2" d="M82.5,15.9c0-4.2-2.9-6.8-6.6-6.8c-3.7,0-6.6,2.6-6.6,6.8c0,4.2,2.8,6.8,6.6,6.8C79.5,22.7,82.5,20.1,82.5,15.9
	z M71.5,15.9c0-3.3,2.1-4.9,4.4-4.9c2.3,0,4.4,1.6,4.4,4.9c0,3.3-2.2,4.9-4.5,4.9C73.5,20.8,71.5,19.3,71.5,15.9z"/>
<path class="st2" d="M86.7,22.5h2.8v-11h2.4V9.3h-2.4V8.4c0-1.5,0.6-2.1,2.3-2.1V4c-3.5,0-5,1.3-5,4.4v0.9h-1.6v2.2h1.6V22.5z"/>
<path class="st2" d="M94.3,22.5H97V9.3h-2.7V22.5z M95.7,7.6c1,0,1.7-0.8,1.7-1.8S96.7,4,95.7,4c-1,0-1.8,0.8-1.8,1.8
	S94.7,7.6,95.7,7.6z"/>
<path class="st2" d="M110,22.5h2.7v-7.8c0-3.7-2.3-5.6-5.4-5.6c-1.6,0-3,0.6-3.9,1.7V9.3h-2.7v13.2h2.7v-7.4c0-2.4,1.3-3.7,3.3-3.7
	c2,0,3.3,1.2,3.3,3.7V22.5z"/>
<path class="st2" d="M115.3,15.9c0,4.1,2.8,6.9,6.2,6.9c2.2,0,3.8-1.1,4.6-2.2v2h2.8V9.3h-2.8v1.9c-0.8-1.1-2.4-2.1-4.6-2.1
	C118.1,9.1,115.3,11.8,115.3,15.9z M126.1,15.9c0,2.9-1.9,4.5-4,4.5c-2,0-4-1.7-4-4.5s2-4.4,4-4.4C124.2,11.5,126.1,13.1,126.1,15.9
	z"/>
<path class="st2" d="M141.9,22.5h2.7v-7.8c0-3.7-2.3-5.6-5.4-5.6c-1.6,0-3,0.6-3.9,1.7V9.3h-2.7v13.2h2.7v-7.4
	c0-2.4,1.3-3.7,3.3-3.7c2,0,3.3,1.2,3.3,3.7V22.5z"/>
<path class="st2" d="M147.2,15.9c0,4.2,2.7,6.8,6.5,6.8c3.2,0,5.4-1.8,6.1-4.4h-3c-0.5,1.4-1.5,2.1-3.1,2.1c-2.2,0-3.7-1.6-3.7-4.5
	c0-2.9,1.5-4.5,3.7-4.5c1.6,0,2.7,0.8,3.1,2.1h3c-0.7-2.8-2.9-4.4-6.1-4.4C149.8,9.1,147.2,11.8,147.2,15.9z"/>
<path class="st2" d="M168,11.4c2,0,3.6,1.3,3.7,3.3h-7.3C164.7,12.6,166.2,11.4,168,11.4z M174.2,18.6h-3c-0.5,1-1.4,1.8-3.1,1.8
	c-2,0-3.6-1.3-3.8-3.5h10.1c0.1-0.5,0.1-0.9,0.1-1.3c0-3.9-2.7-6.5-6.4-6.5c-3.9,0-6.6,2.7-6.6,6.8s2.8,6.8,6.6,6.8
	C171.4,22.7,173.5,20.9,174.2,18.6z"/>
<path class="st2" d="M187.1,18.8c-0.1-4.8-7.6-3.3-7.6-6c0-0.9,0.8-1.5,2.2-1.5c1.5,0,2.4,0.8,2.5,1.9h2.7c-0.1-2.6-2.1-4.2-5.1-4.2
	c-3.1,0-5.1,1.7-5.1,3.8c0,4.8,7.7,3.4,7.7,6c0,0.9-0.8,1.6-2.4,1.6c-1.5,0-2.5-0.9-2.6-2h-2.8c0.1,2.4,2.4,4.3,5.5,4.3
	C185.2,22.7,187.1,21.1,187.1,18.8z"/>
</svg>
